<svg xmlns="http://www.w3.org/2000/svg" xmlns:xlink="http://www.w3.org/1999/xlink" width="100" zoomAndPan="magnify" viewBox="0 0 75 74.999997" height="100" preserveAspectRatio="xMidYMid meet" version="1.0"><defs><g/><clipPath id="a61f7dab5b"><path d="M 0 13.28125 L 75 13.28125 L 75 62.03125 L 0 62.03125 Z M 0 13.28125 " clip-rule="nonzero"/></clipPath></defs><g clip-path="url(#a61f7dab5b)"><path fill="#ceaa5b" d="M 17.914062 15.5625 C 16.777344 17.039062 16.582031 18.960938 17.332031 21.324219 L 27.09375 49.109375 L 22.539062 62.027344 L 22.113281 62.027344 L 7.726562 21.007812 C 6.964844 18.914062 6.019531 17.167969 4.898438 15.765625 C 3.777344 14.367188 2.195312 13.664062 0.164062 13.664062 L 0.0078125 13.28125 L 22.109375 13.28125 L 22.246094 13.664062 C 20.570312 13.664062 19.253906 14.164062 18.296875 15.15625 L 28.460938 43.910156 L 35.566406 23.597656 L 35.859375 24.09375 L 28.417969 45.265625 Z M 59.382812 13.664062 C 61.863281 13.664062 63.449219 14.402344 64.128906 15.867188 C 64.808594 17.335938 64.429688 19.15625 62.996094 21.324219 L 56.039062 31.238281 L 46.296875 14.863281 C 47.042969 14.0625 48.167969 13.664062 49.664062 13.664062 L 49.6875 13.28125 C 45.78125 13.28125 42.136719 13.28125 38.746094 13.28125 C 35.355469 13.28125 31.605469 13.28125 27.492188 13.28125 L 27.445312 13.664062 C 29.617188 13.816406 31.449219 14.570312 32.945312 15.925781 C 34.441406 17.28125 35.824219 19.082031 37.097656 21.324219 L 48.992188 41.316406 L 49.261719 41.769531 L 56.53125 54.011719 C 57.953125 56.554688 58.164062 58.566406 57.160156 60.042969 L 47.667969 44.074219 L 47.375 43.597656 L 40.101562 54.011719 C 39.128906 55.425781 38.144531 56.707031 37.140625 57.851562 C 36.136719 58.996094 35.027344 59.917969 33.808594 60.609375 C 32.585938 61.300781 31.15625 61.648438 29.507812 61.648438 L 29.554688 62.03125 L 44.320312 62.03125 L 44.300781 61.648438 C 41.832031 61.648438 40.25 60.914062 39.5625 59.445312 C 38.875 57.976562 39.25 56.167969 40.6875 54.011719 L 47.351562 44.503906 L 56.824219 60.449219 C 56.074219 61.25 54.960938 61.648438 53.480469 61.648438 L 53.433594 62.03125 L 74.980469 62.03125 L 75 61.648438 C 73.609375 61.648438 72.398438 61.300781 71.367188 60.609375 C 70.332031 59.917969 69.390625 58.996094 68.539062 57.851562 C 67.6875 56.707031 66.847656 55.425781 66.023438 54.011719 L 54.398438 34.429688 L 54.128906 33.976562 L 46.609375 21.324219 C 45.1875 18.777344 44.980469 16.757812 45.984375 15.269531 L 55.722656 31.691406 L 55.902344 31.984375 L 56.015625 32.144531 L 56.285156 31.734375 L 56.328125 31.714844 L 56.308594 31.714844 L 63.601562 21.324219 C 65.097656 19.078125 66.730469 17.277344 68.503906 15.925781 C 70.277344 14.570312 72.433594 13.816406 74.980469 13.664062 L 74.933594 13.28125 C 72.71875 13.28125 71.070312 13.28125 69.984375 13.28125 C 68.902344 13.28125 68.035156 13.28125 67.382812 13.28125 C 66.734375 13.28125 65.890625 13.28125 64.859375 13.28125 C 64.769531 13.28125 64.679688 13.28125 64.589844 13.28125 C 64.273438 13.28125 63.921875 13.28125 63.53125 13.28125 C 62.558594 13.28125 61.167969 13.28125 59.359375 13.28125 Z M 59.382812 13.664062 " fill-opacity="1" fill-rule="nonzero"/></g><g fill="#ceaa5b" fill-opacity="1"><g transform="translate(41.68328, 22.644927)"><g><path d="M 1.65625 0 L 1.59375 -0.3125 L 1.578125 -0.3125 C 1.472656 -0.175781 1.367188 -0.0820312 1.265625 -0.03125 C 1.160156 0.0195312 1.023438 0.046875 0.859375 0.046875 C 0.648438 0.046875 0.484375 -0.0078125 0.359375 -0.125 C 0.242188 -0.238281 0.1875 -0.394531 0.1875 -0.59375 C 0.1875 -1.019531 0.53125 -1.242188 1.21875 -1.265625 L 1.578125 -1.28125 L 1.578125 -1.421875 C 1.578125 -1.585938 1.539062 -1.707031 1.46875 -1.78125 C 1.40625 -1.863281 1.289062 -1.90625 1.125 -1.90625 C 0.945312 -1.90625 0.75 -1.851562 0.53125 -1.75 L 0.421875 -2 C 0.523438 -2.050781 0.640625 -2.09375 0.765625 -2.125 C 0.890625 -2.15625 1.019531 -2.171875 1.15625 -2.171875 C 1.40625 -2.171875 1.59375 -2.113281 1.71875 -2 C 1.84375 -1.894531 1.90625 -1.71875 1.90625 -1.46875 L 1.90625 0 Z M 0.921875 -0.234375 C 1.128906 -0.234375 1.289062 -0.285156 1.40625 -0.390625 C 1.519531 -0.503906 1.578125 -0.660156 1.578125 -0.859375 L 1.578125 -1.046875 L 1.25 -1.046875 C 0.988281 -1.035156 0.800781 -0.992188 0.6875 -0.921875 C 0.582031 -0.847656 0.53125 -0.738281 0.53125 -0.59375 C 0.53125 -0.46875 0.5625 -0.375 0.625 -0.3125 C 0.695312 -0.257812 0.796875 -0.234375 0.921875 -0.234375 Z M 0.921875 -0.234375 "/></g></g></g></svg>